<svg version="1.1" id="Layer_1" xmlns="http://www.w3.org/2000/svg" xmlns:xlink="http://www.w3.org/1999/xlink" x="0px" y="0px"
	 width="100%" viewBox="0 0 291 327" enable-background="new 0 0 291 327" xml:space="preserve">
<path fill="none" opacity="1.000000" stroke="#000000" stroke-linecap="round" stroke-linejoin="round" stroke-width="4.000000"
	d="
M117.000000,244.000000 
	C123.641724,245.164291 130.334534,244.351028 137.000671,244.457474 
	C147.164764,244.619751 157.333557,244.533875 167.499771,244.466507 
	C169.184891,244.455353 171.108368,245.208496 172.625565,243.520111 
	C164.918381,220.572495 163.007416,196.961288 163.577621,172.500000 
	C168.153336,172.500000 172.329086,172.412811 176.499237,172.527832 
	C179.780396,172.618347 183.358475,171.783157 184.243301,168.920654 
	C185.194901,165.842102 185.341034,161.931595 182.512405,158.988068 
	C179.760361,156.124222 176.744843,154.393021 172.499390,154.429321 
	C153.500778,154.591812 134.499954,154.475372 115.500031,154.514038 
	C109.276482,154.526703 104.589058,159.076385 104.500000,165.000000 
	C104.422020,170.186600 106.276550,172.284927 111.501137,172.467392 
	C116.001823,172.624588 120.512344,172.500000 125.578110,172.500000 
	C124.911659,181.001633 125.956444,188.931839 124.736641,197.035614 
	C123.795753,203.286392 123.295898,209.678970 122.611183,216.012024 
	C121.683258,224.594543 119.466125,232.813446 116.903076,240.969543 
	C116.565063,242.045135 116.745049,243.013062 116.500000,244.000000 
"/>
<path fill="none" opacity="1.000000" stroke="#000000" stroke-linecap="round" stroke-linejoin="round" stroke-width="4.000000"
	d="
M117.000000,133.000000 
	C117.594948,135.697693 119.074165,136.620850 122.001045,136.584595 
	C136.832092,136.400833 151.666672,136.505234 166.500000,136.494812 
	C168.956406,136.493088 171.486542,136.941177 171.580002,133.001892 
	C171.679794,128.795883 168.945084,129.509827 166.500000,129.507355 
	C151.833328,129.492508 137.165924,129.576187 122.500664,129.432251 
	C119.745842,129.405212 117.750275,130.000549 116.500000,132.500000 
"/>
<path fill="none" opacity="1.000000" stroke="#000000" stroke-linecap="round" stroke-linejoin="round" stroke-width="4.000000"
	d="
M181.000000,260.500000 
	C180.166656,259.000000 178.923828,257.589264 178.573929,255.983887 
	C177.342270,250.332642 173.958847,249.220306 168.496429,249.352066 
	C151.672897,249.757874 134.832672,249.577179 118.000565,249.433670 
	C114.708557,249.405594 112.466843,249.886871 111.414383,253.474884 
	C110.691895,255.938004 109.161644,258.164185 107.996246,260.498108 
	C108.916992,261.707184 110.239799,261.499176 111.500000,261.499237 
	C133.666672,261.500275 155.833328,261.505432 177.999969,261.478912 
	C178.833496,261.477905 179.666656,261.166656 180.500000,260.999969 
"/>
<path fill="none" opacity="1.000000" stroke="#000000" stroke-linecap="round" stroke-linejoin="round" stroke-width="4.000000"
	d="
M132.500000,55.500000 
	C133.484558,56.189819 133.678986,57.635635 135.502487,57.574974 
	C141.495865,57.375610 147.500229,57.470516 153.499863,57.517929 
	C155.303741,57.532185 156.456375,56.973999 156.498367,54.999966 
	C156.542572,52.922447 154.819473,52.595963 153.498428,52.562958 
	C147.668732,52.417301 141.832870,52.541203 136.000259,52.476292 
	C134.113754,52.455299 133.609894,54.087185 132.500000,55.000000 
"/>
<path fill="none" opacity="1.000000" stroke="#000000" stroke-linecap="round" stroke-linejoin="round" stroke-width="4.000000"
	d="
M139.500000,31.500000 
	C136.810883,30.176352 134.178574,28.659531 130.750000,28.358488 
	C130.750000,33.000000 130.750000,37.000000 130.750000,41.313332 
	C133.887299,41.511181 136.019516,39.096447 138.684906,39.001316 
	C141.538208,41.951500 135.127289,44.040577 138.439758,47.250000 
	C142.666672,47.250000 147.333328,47.250000 152.383255,47.250000 
	C152.727631,44.403603 150.059891,42.534782 150.523453,39.899403 
	C153.155182,38.383080 154.860977,40.880211 157.000000,41.499996 
	C160.553085,37.817837 160.553085,32.440418 156.931168,28.423668 
	C154.843903,28.698387 153.388626,30.999193 150.783371,30.450668 
	C149.566895,27.613379 152.262619,25.552525 152.552307,22.527178 
	C147.568176,20.787931 142.547760,21.233646 137.650162,22.264727 
	C136.755142,25.376406 139.899414,27.215714 139.500000,30.000000 
"/>
<path fill="none" opacity="1.000000" stroke="#000000" stroke-linecap="round" stroke-linejoin="round" stroke-width="4.000000"
	d="
M123.500000,141.500000 
	C121.624161,142.517776 118.736588,143.212570 119.645226,145.951828 
	C120.410591,148.259186 122.526474,149.607224 125.500900,149.567612 
	C137.665421,149.405579 149.833771,149.443527 161.999680,149.539963 
	C165.016891,149.563858 167.344635,148.448639 167.358994,145.499313 
	C167.373581,142.506302 164.859344,141.483932 161.999985,141.489441 
	C149.333359,141.513809 136.666672,141.500000 124.000000,141.500000 
"/>
<path fill="none" opacity="1.000000" stroke="#000000" stroke-linecap="round" stroke-linejoin="round" stroke-width="3.000000"
	d="
M119.500000,61.500000 
	C116.027260,63.140190 113.784233,65.937401 111.367081,68.891235 
	C106.697845,74.597168 109.863319,79.836136 111.603638,84.964828 
	C115.262428,95.747284 119.432739,106.359238 123.526657,116.989731 
	C125.775894,122.830200 126.946144,123.500000 133.000000,123.500000 
	C140.833328,123.500000 148.674286,123.291725 156.497162,123.577568 
	C161.242096,123.750946 163.960632,121.740150 165.508041,117.502937 
	C170.319382,104.328239 175.275742,91.205292 179.956802,77.984711 
	C182.532990,70.708839 175.694748,61.595146 168.000381,61.475719 
	C160.584030,61.360607 153.365631,63.188721 146.000000,63.499969 
	C137.253632,63.869564 128.777039,60.731915 120.000000,61.500000 
"/>
<path fill="none" opacity="1.000000" stroke="#000000" stroke-linecap="round" stroke-linejoin="round" stroke-width="4.000000"
	d="
M100.000000,266.500000 
	C94.490898,268.448517 90.133369,271.523010 88.931793,278.125000 
	C125.998497,278.125000 162.998688,278.125000 200.019714,278.125000 
	C198.839676,270.643219 194.205292,266.509583 187.000000,266.505981 
	C158.166672,266.491516 129.333328,266.500000 100.500000,266.500000 
"/>
<path fill="none" opacity="1.000000" stroke="#000000" stroke-linecap="round" stroke-linejoin="round" stroke-width="4.000000"
	d="
M87.500000,283.500000 
	C83.698235,284.879303 83.966232,288.273315 84.659790,290.958740 
	C85.402641,293.835052 88.458290,293.520172 91.000015,293.518280 
	C126.833328,293.491394 162.666687,293.511475 198.499969,293.468933 
	C200.462189,293.466614 202.540054,294.294220 203.719025,291.080353 
	C204.544312,288.830566 204.252823,287.400421 203.541580,285.484558 
	C202.424530,282.475494 199.977127,283.537354 197.999954,283.534790 
	C161.333344,283.487335 124.666664,283.500000 88.000000,283.500000 
"/>
<path fill="none" opacity="1.000000" stroke="#000000" stroke-linecap="round" stroke-linejoin="round" stroke-width="4.000000"
	d="
M89.000000,298.500000 
	C87.024124,299.738373 87.469467,302.843109 84.544792,303.660309 
	C82.853035,304.132965 81.960396,306.525085 82.564232,308.480164 
	C83.267838,310.758331 85.199661,312.008789 87.506340,312.468170 
	C88.468185,312.659729 89.500000,312.500000 90.500000,312.500000 
	C126.666664,312.500000 162.833328,312.490631 198.999985,312.519958 
	C201.546814,312.522003 204.086960,312.707458 205.479767,309.989624 
	C206.031342,308.913330 206.893600,307.928284 206.521225,306.494476 
	C205.812225,303.764526 198.995911,298.502686 196.000000,298.502350 
	C160.500000,298.498718 125.000000,298.500000 89.500000,298.500000 
"/>
</svg>